<?xml version="1.0" encoding="UTF-8" standalone="no"?>
<!-- Created with Inkscape (http://www.inkscape.org/) -->

<svg
   xmlns:dc="http://purl.org/dc/elements/1.1/"
   xmlns:cc="http://creativecommons.org/ns#"
   xmlns:rdf="http://www.w3.org/1999/02/22-rdf-syntax-ns#"
   xmlns:svg="http://www.w3.org/2000/svg"
   xmlns="http://www.w3.org/2000/svg"
   xmlns:sodipodi="http://sodipodi.sourceforge.net/DTD/sodipodi-0.dtd"
   xmlns:inkscape="http://www.inkscape.org/namespaces/inkscape"
   width="700mm"
   height="700mm"
   viewBox="0 0 699.99999 700.00001"
   version="1.1"
   id="svg1177"
   inkscape:version="0.92.3 (2405546, 2018-03-11)"
   sodipodi:docname="canon-logo.svg"
   inkscape:export-filename="C:\Users\alex\sites\canon-logo-0.png"
   inkscape:export-xdpi="148.63"
   inkscape:export-ydpi="148.63">
  <defs
     id="defs1171" />
  <sodipodi:namedview
     id="base"
     pagecolor="#ffffff"
     bordercolor="#666666"
     borderopacity="1.0"
     inkscape:pageopacity="0.0"
     inkscape:pageshadow="2"
     inkscape:zoom="0.175"
     inkscape:cx="1516.1346"
     inkscape:cy="1694.057"
     inkscape:document-units="mm"
     inkscape:current-layer="layer1"
     showgrid="false"
     fit-margin-top="0"
     fit-margin-left="0"
     fit-margin-right="0"
     fit-margin-bottom="0"
     inkscape:window-width="1600"
     inkscape:window-height="838"
     inkscape:window-x="-8"
     inkscape:window-y="-8"
     inkscape:window-maximized="1" />
  <metadata
     id="metadata1174">
    <rdf:RDF>
      <cc:Work
         rdf:about="">
        <dc:format>image/svg+xml</dc:format>
        <dc:type
           rdf:resource="http://purl.org/dc/dcmitype/StillImage" />
        <dc:title></dc:title>
      </cc:Work>
    </rdf:RDF>
  </metadata>
  <g
     inkscape:label="Layer 1"
     inkscape:groupmode="layer"
     id="layer1"
     transform="translate(-54.106382,652.95367)">
    <g
       id="g230"
       transform="matrix(8.6552334,0,0,-8.6552334,198.91669,-251.65847)"
       style="fill:#cc0000;fill-opacity:1"
       inkscape:export-filename="C:\Users\alex\sites\canon-logo-4.png"
       inkscape:export-xdpi="16.674564"
       inkscape:export-ydpi="16.674564">
      <path
         d="m 0,0 c -3.271,0 -5.926,2.654 -5.926,5.927 0,3.272 2.655,5.926 5.926,5.926 1.156,0 2.233,-0.33 3.143,-0.9 L 0,5.927 5.914,9.341 c -0.64,1.024 -1.564,1.907 -2.679,2.576 -1.416,0.848 -3.387,1.372 -5.569,1.372 -3.113,0 -5.84,-1.128 -7.363,-2.822 -1.123,-1.25 -1.795,-2.827 -1.795,-4.54 0,-1.714 0.67,-3.29 1.795,-4.541 1.527,-1.698 4.215,-2.822 7.275,-2.822 3.059,0 5.744,1.125 7.272,2.822 0.084,0.093 0.164,0.187 0.244,0.283 L 4.863,2.534 C 3.791,1.002 2.014,0 0,0"
         style="fill:#cc0000;fill-opacity:1;fill-rule:nonzero;stroke:none"
         id="path232"
         inkscape:connector-curvature="0" />
    </g>
    <g
       id="g234"
       transform="matrix(8.6552334,0,0,-8.6552334,303.06522,-254.77416)"
       style="fill:#cc0000;fill-opacity:1"
       inkscape:export-filename="C:\Users\alex\sites\canon-logo-4.png"
       inkscape:export-xdpi="16.674564"
       inkscape:export-ydpi="16.674564">
      <path
         d="m 0,0 c -1.189,0 -2.154,0.964 -2.154,2.154 0,1.191 0.965,2.155 2.154,2.155 1.192,0 2.157,-0.964 2.157,-2.155 C 2.157,0.964 1.192,0 0,0 Z M 7.571,-1.437 5.09,7.82 c -0.4,1.494 -1.761,2.596 -3.383,2.596 -0.421,0 -0.826,-0.075 -1.199,-0.211 L -4.834,8.261 H 0.663 L 1.602,4.754 c -0.912,0.786 -2.1,1.262 -3.397,1.262 -2.58,0 -4.669,-1.729 -4.669,-3.862 0,-2.132 2.089,-3.86 4.669,-3.86 1.854,0 3.5,0.908 4.51,2.304 L 3.26,-1.437 h 4.311"
         style="fill:#cc0000;fill-opacity:1;fill-rule:nonzero;stroke:none"
         id="path236"
         inkscape:connector-curvature="0" />
    </g>
    <g
       id="g238"
       transform="matrix(8.6552334,0,0,-8.6552334,456.17628,-344.91852)"
       style="fill:#cc0000;fill-opacity:1"
       inkscape:export-filename="C:\Users\alex\sites\canon-logo-4.png"
       inkscape:export-xdpi="16.674564"
       inkscape:export-ydpi="16.674564">
      <path
         d="M 0,0 C -0.326,0 -0.635,-0.072 -0.91,-0.202 L -4.34,-1.8 C -4.508,-0.779 -5.395,0 -6.465,0 -6.791,0 -7.1,-0.072 -7.375,-0.202 l -4.19,-1.953 h 2.944 v -9.698 h 4.31 v 8.621 c 0,0.595 0.485,1.077 1.078,1.077 0.596,0 1.077,-0.482 1.077,-1.077 v -8.621 h 4.31 v 9.698 C 2.154,-0.964 1.189,0 0,0"
         style="fill:#cc0000;fill-opacity:1;fill-rule:nonzero;stroke:none"
         id="path240"
         inkscape:connector-curvature="0" />
    </g>
    <g
       id="g242"
       transform="matrix(8.6552334,0,0,-8.6552334,690.11865,-344.91852)"
       style="fill:#cc0000;fill-opacity:1"
       inkscape:export-filename="C:\Users\alex\sites\canon-logo-4.png"
       inkscape:export-xdpi="16.674564"
       inkscape:export-ydpi="16.674564">
      <path
         d="M 0,0 C -0.326,0 -0.635,-0.072 -0.912,-0.202 L -4.342,-1.8 C -4.51,-0.779 -5.398,0 -6.467,0 -6.793,0 -7.099,-0.072 -7.377,-0.202 l -4.189,-1.953 h 2.945 v -9.698 h 4.311 v 8.621 c 0,0.595 0.482,1.077 1.076,1.077 0.595,0 1.078,-0.482 1.078,-1.077 v -8.621 h 4.31 v 9.698 C 2.154,-0.964 1.19,0 0,0"
         style="fill:#cc0000;fill-opacity:1;fill-rule:nonzero;stroke:none"
         id="path244"
         inkscape:connector-curvature="0" />
    </g>
    <g
       id="g246"
       transform="matrix(8.6552334,0,0,-8.6552334,545.42899,-328.87172)"
       style="fill:#cc0000;fill-opacity:1"
       inkscape:export-filename="C:\Users\alex\sites\canon-logo-4.png"
       inkscape:export-xdpi="16.674564"
       inkscape:export-ydpi="16.674564">
      <path
         d="M 0,0 C -0.193,0.719 -0.931,1.146 -1.65,0.952 -2.369,0.76 -2.795,0.022 -2.601,-0.697 l 2.092,-7.806 c 0.191,-0.718 0.929,-1.145 1.648,-0.953 0.719,0.193 1.145,0.932 0.953,1.65 z m 5.852,-4.252 c 0,-3.372 -2.734,-6.105 -6.106,-6.105 -3.373,0 -6.107,2.733 -6.107,6.105 0,3.373 2.734,6.106 6.107,6.106 3.372,0 6.106,-2.733 6.106,-6.106"
         style="fill:#cc0000;fill-opacity:1;fill-rule:nonzero;stroke:none"
         id="path248"
         inkscape:connector-curvature="0" />
    </g>
  </g>
</svg>
