<?xml version="1.0" encoding="UTF-8" standalone="no"?>
<svg
   xmlns:dc="http://purl.org/dc/elements/1.1/"
   xmlns:cc="http://creativecommons.org/ns#"
   xmlns:rdf="http://www.w3.org/1999/02/22-rdf-syntax-ns#"
   xmlns:svg="http://www.w3.org/2000/svg"
   xmlns="http://www.w3.org/2000/svg"
   xmlns:sodipodi="http://sodipodi.sourceforge.net/DTD/sodipodi-0.dtd"
   xmlns:inkscape="http://www.inkscape.org/namespaces/inkscape"
   version="1.1"
   id="Artwork"
   x="0px"
   y="0px"
   viewBox="0 0 700 700"
   enable-background="new 0 0 284 56"
   xml:space="preserve"
   sodipodi:docname="lexmark-logo.svg"
   width="700"
   height="700"
   inkscape:version="0.92.4 (5da689c313, 2019-01-14)"
   inkscape:export-filename="C:\Users\suitedoalex\sites\lexmark-logo-0.png"
   inkscape:export-xdpi="561.73999"
   inkscape:export-ydpi="561.73999"><metadata
     id="metadata19"><rdf:RDF><cc:Work
         rdf:about=""><dc:format>image/svg+xml</dc:format><dc:type
           rdf:resource="http://purl.org/dc/dcmitype/StillImage" /><dc:title></dc:title></cc:Work></rdf:RDF></metadata><defs
     id="defs17" /><sodipodi:namedview
     pagecolor="#ffffff"
     bordercolor="#666666"
     borderopacity="1"
     objecttolerance="10"
     gridtolerance="10"
     guidetolerance="10"
     inkscape:pageopacity="0"
     inkscape:pageshadow="2"
     inkscape:window-width="1600"
     inkscape:window-height="837"
     id="namedview15"
     showgrid="false"
     inkscape:zoom="0.83159741"
     inkscape:cx="104.88678"
     inkscape:cy="285.5507"
     inkscape:window-x="-8"
     inkscape:window-y="-8"
     inkscape:window-maximized="1"
     inkscape:current-layer="Artwork" /><g
     id="g12"
     transform="matrix(2.0688933,0,0,2.0688933,56.734375,291.55376)"
     inkscape:export-filename="C:\Users\suitedoalex\sites\lexmark-logo-4.png"
     inkscape:export-xdpi="65.469658"
     inkscape:export-ydpi="65.469658"><path
       d="m 270,22.5 -9.8,9 9.8,9 v 5.2 h -0.3 L 255.1,32.4 V 45 h -4.2 V 6.8 h 4.2 v 23.9 l 14.6,-13.2 h 0.4 v 5 z M 78.9,45 h 21.6 V 40.7 H 83.3 V 8.1 h -4.4 z m 36.6,-27.5 c -6.6,0 -12.7,5.4 -12.7,14.1 0,8.4 5.5,14 13.5,14 3.5,0 6.8,-0.9 9.8,-3 V 38 c -3.1,2.6 -6.5,3.7 -9.6,3.7 -4.8,0 -9,-3 -9.4,-8.5 h 20.2 c 0,-0.5 0.2,-1.7 0.2,-2.2 -0.1,-8.9 -5.5,-13.5 -12,-13.5 z m 0,3.8 c 3.7,0 7.6,2.4 7.7,8.2 H 107 c 0.3,-4.5 3.7,-8.2 8.5,-8.2 z m 71.1,-3.8 c -3.6,0 -6.2,1.9 -7.7,4.7 -1.3,-3 -3.7,-4.7 -7.5,-4.7 -3.3,0 -5.8,1.9 -7.2,4.5 H 164 l -0.5,-4 h -3.3 v 27 h 4.3 V 28 c 0,-3.3 2,-6.4 5.8,-6.4 3.6,0 5.2,2.1 5.2,6 V 45 h 4.3 V 27.7 c 0,-3.1 2.1,-6.1 5.7,-6.1 3.7,0 5.3,2.1 5.3,6 V 45 h 4.3 V 27 c 0.1,-5.6 -2.6,-9.5 -8.5,-9.5 z m 25.9,0 c -6.4,0 -12.4,5.4 -12.4,14.1 0,8.5 6,14 12.4,14 4,0 7.8,-1.9 9.9,-5.6 h 0.1 l 0.5,5 h 3.5 V 18 H 223 l -0.5,5 h -0.1 c -2,-3.6 -5.8,-5.5 -9.9,-5.5 z m 0.8,4 c 5.1,0 8.9,4.1 8.9,10 0,5.9 -3.8,10 -8.9,10 -5,0 -8.9,-4 -8.9,-10 0,-6 3.9,-10 8.9,-10 z m 31.5,-3.8 c -2.3,0 -5.9,1.1 -7.7,4.6 v 0 L 236.7,18 h -3.4 v 27 h 4.3 V 29.5 c 0,-6.2 5,-8.2 9.2,-7.3 v -4.3 c -0.8,-0.1 -1.3,-0.2 -2,-0.2 z m -90.1,-0.3 h -0.3 L 143.1,28.6 131.9,17.4 h -0.3 v 5.4 l 8.7,8.7 -8.7,8.6 v 5.5 h 0.3 L 143,34.4 154.3,45.7 h 0.4 v -5.5 l -8.7,-8.7 8.7,-8.8 z M 272.1,7.1 V 6.5 h 4.5 v 0.6 h -1.9 v 4.5 H 274 V 7.1 Z m 6.7,-0.6 1.9,4.3 1.9,-4.3 h 0.9 v 5.1 H 283 v -4.3 0 l -1.9,4.2 h -0.6 l -1.9,-4.2 v 0 4.2 H 278 v -5 z"
       id="path2"
       inkscape:connector-curvature="0"
       style="fill:#32323c" /><polygon
       points="55.7,0.4 44.8,0.4 27.9,17.3 55.7,45.2 "
       id="polygon4"
       style="fill:#008a44" /><polygon
       points="0,56.1 10.9,56.1 27.8,39.1 0,11.3 "
       id="polygon6"
       style="fill:#3af23a" /><polygon
       points="55.7,56.1 55.7,45.2 38.8,28.2 10.9,56.1 "
       id="polygon8"
       style="fill:#006446" /><polygon
       points="0,0.4 0,11.3 16.9,28.2 44.8,0.4 "
       id="polygon10"
       style="fill:#00c425" /></g></svg>